PathFileType	4	(X/Y/Z)	./resultDataOpenSim/trcMotMarkerGrf/sub06/qtm-01-05.trc
DataRate	CameraRate	NumFrames	NumMarkers	Units	OrigDataRate	OrigDataStartFrame	OrigNumFrames
250.000000	250.000000	15	24	m	250.000000	378	503
Frame#	Time	L.Toe.Tip			R.Toe.Tip			L.Ankle.Lat			R.Ankle.Lat			L.Ankle.Med			R.Ankle.Med			L.Heel			R.Heel			L.Knee.Lat			R.Knee.Lat			L.Knee.Med			R.Knee.Med			L.Thigh.Upper			R.Thigh.Upper			L.ASIS			R.ASIS			V.Sacral			L.Acromium			R.Acromium			C7			L.Elbow			R.Elbow			L.Wrist.Lat			R.Wrist.Lat
		X1	Y1	Z1	X2	Y2	Z2	X3	Y3	Z3	X4	Y4	Z4	X5	Y5	Z5	X6	Y6	Z6	X7	Y7	Z7	X8	Y8	Z8	X9	Y9	Z9	X10	Y10	Z10	X11	Y11	Z11	X12	Y12	Z12	X13	Y13	Z13	X14	Y14	Z14	X15	Y15	Z15	X16	Y16	Z16	X17	Y17	Z17	X18	Y18	Z18	X19	Y19	Z19	X20	Y20	Z20	X21	Y21	Z21	X22	Y22	Z22	X23	Y23	Z23	X24	Y24	Z24

378	1.508	1.413846	0.12016149	-0.051025282	0.82063265	0.03436261	0.12019785	1.2876083	0.10192086	-0.066455419	0.69256283	0.086265992	0.14415744	1.2889467	0.11687246	0.017334747	0.72090339	0.10756095	0.059513226	1.2356021	0.044540664	-0.018263152	0.6377896	0.080139388	0.083013236	1.192435	0.45925251	-0.063409285	0.85667192	0.44363093	0.18174767	1.1825938	0.44482824	0.061260768	0.83613133	0.444263	0.050731038	1.019296	0.81033442	-0.10057109	0.94683019	0.79684766	0.2400908	1.0793681	0.85345984	-0.044905938	1.0557358	0.84775895	0.20385014	0.88115529	0.92492791	0.062863357	0.98279732	1.333401	-0.11179486	1.0054323	1.326229	0.24809717	0.91927949	1.3660591	0.072421166	0.87898206	1.0348259	-0.16039329	1.0033341	1.0148098	0.35698476	0.98011386	0.81713118	-0.21075695	1.2458966	0.95393484	0.327187
379	1.512	1.4276376	0.12436398	-0.050396628	0.82072262	0.034360709	0.12020681	1.3017888	0.10343665	-0.065670005	0.69317228	0.087168588	0.14427636	1.3024467	0.11794886	0.018135518	0.72151761	0.10824716	0.059663904	1.2509275	0.044861146	-0.018021036	0.63833113	0.081521805	0.083196022	1.1994742	0.45792302	-0.06215964	0.86061316	0.44312216	0.18173463	1.1894177	0.44351063	0.062694302	0.84021086	0.44378925	0.050661584	1.0262299	0.80875871	-0.10069326	0.95270786	0.79545309	0.23961152	1.0864239	0.85194361	-0.045044856	1.0620466	0.84621753	0.20366051	0.88796525	0.92343785	0.062208582	0.98944262	1.331747	-0.11199174	1.0117056	1.3248023	0.24800588	0.92576146	1.364657	0.072203378	0.88498303	1.0337034	-0.16006624	1.0112548	1.013445	0.35712507	0.98322753	0.81512149	-0.21190639	1.2540814	0.95452904	0.32636873
380	1.516	1.4408898	0.12824425	-0.049691031	0.82082644	0.034355987	0.12020223	1.3153982	0.10490315	-0.064740263	0.69382495	0.088112896	0.14443637	1.3156599	0.11919025	0.019076163	0.72224591	0.10895002	0.05988168	1.2656881	0.045319458	-0.017683298	0.63891911	0.082981788	0.083431519	1.206592	0.4566987	-0.060964325	0.86463512	0.44258444	0.18171204	1.1962897	0.44239109	0.06404162	0.84438503	0.44328161	0.050635902	1.033193	0.80717467	-0.10081106	0.95866075	0.79406759	0.2391877	1.0935279	0.85043123	-0.045173968	1.0684415	0.84465807	0.2035785	0.8932917	0.92251478	0.063142455	0.99612376	1.3300819	-0.11222442	1.0180042	1.3233571	0.24789752	0.93225829	1.3632519	0.071985307	0.89104284	1.032555	-0.15977429	1.0191429	1.0120595	0.3572362	0.98641336	0.81313978	-0.2130468	1.2621876	0.95503276	0.3255622
381	1.52	1.4535899	0.13175305	-0.048934662	0.82094464	0.034353129	0.12018892	1.3284083	0.1062743	-0.063625928	0.69457997	0.089075618	0.14465884	1.3285321	0.12047174	0.020220689	0.72303806	0.10969592	0.060147009	1.2798742	0.045785716	-0.016888498	0.63955054	0.084523449	0.083724256	1.2137924	0.45559223	-0.059838362	0.86874548	0.44202063	0.18169411	1.2032224	0.44145573	0.065294913	0.84866318	0.44274495	0.050651016	1.0402742	0.805588	-0.10095405	0.96466531	0.79269581	0.238793	1.1006819	0.84892768	-0.04528325	1.0749073	0.84308781	0.2035944	0.89624249	0.92247664	0.066602044	1.00284	1.3284121	-0.11248137	1.0243295	1.3218984	0.24777525	0.93877747	1.361836	0.07176279	0.89715628	1.0313866	-0.15951542	1.027002	1.0106629	0.35731894	0.98966739	0.81118661	-0.21417573	1.2702313	0.9554439	0.324757
382	1.524	1.4657246	0.13482632	-0.048133854	0.82107778	0.034356599	0.12017273	1.3408238	0.10749781	-0.062293739	0.69551246	0.090022483	0.14496443	1.3410194	0.12169647	0.021577615	0.72388284	0.11049185	0.060428937	1.2934208	0.046108324	-0.015331546	0.64022944	0.086154563	0.084076685	1.2210787	0.45461521	-0.058782624	0.87296774	0.44143867	0.18171004	1.2102304	0.44067884	0.06645217	0.85306718	0.44219006	0.050689588	1.0474809	0.8040174	-0.10111834	0.97070897	0.7913382	0.23840929	1.1078836	0.84743969	-0.045362901	1.081393	0.84152061	0.20360883	0.89758687	0.92303417	0.071759534	1.0095929	1.3267424	-0.11275872	1.0306808	1.3204325	0.24763809	0.94532178	1.3604065	0.071524994	0.90333112	1.0302064	-0.15928131	1.0348239	1.0092575	0.35736616	0.99300253	0.80926709	-0.21528804	1.2782181	0.95575836	0.32394123
383	1.528	1.4772843	0.13740914	-0.047282884	0.8212285	0.034371567	0.12016386	1.3526433	0.10850771	-0.06074161	0.69664869	0.090958439	0.14535472	1.3529706	0.12278751	0.023082955	0.72479006	0.11133714	0.060710471	1.3062545	0.046252166	-0.013130462	0.64096456	0.08788112	0.08448949	1.2284484	0.45376474	-0.057786519	0.87731667	0.4408427	0.18177948	1.2173148	0.44002171	0.067511124	0.85762308	0.44162833	0.050729299	1.0547897	0.80248379	-0.1012784	0.9767863	0.78999096	0.23801936	1.1151289	0.84596982	-0.045414958	1.0878946	0.83996771	0.20353607	0.89964156	0.92334061	0.076178847	1.0163847	1.325079	-0.11306513	1.037059	1.3189662	0.24748261	0.95189533	1.3589761	0.071250822	0.90958297	1.0290268	-0.15905637	1.0426003	1.0078424	0.35737099	0.99644016	0.80738726	-0.21637596	1.2861683	0.95596977	0.32310979
384	1.532	1.488263	0.13948022	-0.046397539	0.82139989	0.034401456	0.12017592	1.3638435	0.10923078	-0.059001034	0.69790181	0.091963371	0.1458026	1.3642537	0.12367375	0.024679456	0.72576234	0.11223688	0.06100292	1.3183431	0.046296025	-0.010721044	0.64176352	0.089704377	0.084959886	1.2359006	0.45301523	-0.056824024	0.88179301	0.44023085	0.18190663	1.2244676	0.43944037	0.068476851	0.86234372	0.44106269	0.050757558	1.0621802	0.80099628	-0.10140336	0.98288933	0.78864565	0.23759591	1.1224184	0.84451491	-0.04544694	1.094503	0.83843127	0.2033675	0.90403955	0.92281504	0.07818197	1.0232149	1.3234303	-0.1134051	1.0434675	1.3175056	0.24730691	0.95850299	1.3575583	0.070928484	0.91591299	1.0278604	-0.15883435	1.050335	1.006423	0.35733476	0.9999945	0.80554839	-0.21743323	1.2941042	0.95607071	0.32228109
385	1.536	1.4986668	0.14104939	-0.045521659	0.82158892	0.034441808	0.12021594	1.3744223	0.10961033	-0.057118125	0.69910924	0.093136138	0.14626133	1.3749104	0.12431833	0.026366836	0.7267928	0.11320036	0.061331445	1.3296957	0.046281123	-0.0083795769	0.64263115	0.091626472	0.085484796	1.2434404	0.45232741	-0.05586154	0.88639429	0.43960212	0.18208854	1.2316902	0.43890341	0.069368814	0.86721336	0.44048641	0.050787639	1.0696376	0.79955365	-0.10148083	0.98899985	0.78729048	0.23710073	1.1297653	0.84307448	-0.045461899	1.101334	0.83690733	0.20314841	0.91053159	0.92157347	0.078088735	1.0300806	1.3218018	-0.11377109	1.0499107	1.316054	0.24711097	0.9651421	1.3561522	0.07056764	0.92230047	1.0267073	-0.15863319	1.0580377	1.0050091	0.3572641	1.0036689	0.80374873	-0.21845916	1.3020201	0.95605733	0.32148819
386	1.54	1.5085313	0.14212404	-0.044682996	0.82178528	0.034481548	0.1202755	1.3844131	0.10962407	-0.055136021	0.70019102	0.094491254	0.14670448	1.3850187	0.12472065	0.02814661	0.72787962	0.11423356	0.061715944	1.3403387	0.046140692	-0.0060399228	0.64357185	0.093652095	0.086064961	1.2510594	0.45166433	-0.054888743	0.89112311	0.4389641	0.18231516	1.2389957	0.43840213	0.070213895	0.87219437	0.43989191	0.050854219	1.0771503	0.79815918	-0.10152361	0.99509771	0.78592217	0.23650925	1.1371918	0.84165287	-0.045461251	1.1083884	0.83539351	0.20294179	0.918011	0.92003729	0.07710585	1.0369781	1.320193	-0.11415724	1.056392	1.3146128	0.24689407	0.97180909	1.3547514	0.070180867	0.92873	1.0255596	-0.15847238	1.0657053	1.0036048	0.35716036	1.0074654	0.80199129	-0.2194557	1.3098779	0.95593629	0.32074104
387	1.544	1.5179046	0.14268812	-0.043839432	0.8219819	0.03451406	0.12033807	1.3938499	0.10928385	-0.053095121	0.70123603	0.095953393	0.14715926	1.3945094	0.12489764	0.029969886	0.72903123	0.11533666	0.062164204	1.3502885	0.045780843	-0.0035504919	0.64459082	0.095785606	0.086703261	1.2587347	0.450999	-0.05392968	0.89598377	0.43832748	0.18256616	1.2463944	0.43794178	0.071033894	0.87725736	0.4392812	0.050985152	1.0847124	0.79682389	-0.10155337	1.0011942	0.78456364	0.23585277	1.1447016	0.84025168	-0.045443847	1.1155255	0.83389397	0.20280363	0.92563187	0.91850898	0.076102285	1.0439041	1.3186034	-0.11456565	1.0629121	1.3131842	0.24665375	0.97850876	1.3533576	0.069765901	0.93520815	1.0244184	-0.15834815	1.0733224	1.002208	0.35701849	1.0113878	0.80028573	-0.22042273	1.3176396	0.95572294	0.320012
388	1.548	1.5267894	0.14272195	-0.042831188	0.82218157	0.034541946	0.12039514	1.4027451	0.10863432	-0.051043627	0.70238252	0.097451303	0.1476759	1.4031993	0.12485619	0.03175784	0.7302579	0.11650798	0.062676081	1.3595318	0.045166764	-0.00095849761	0.64569549	0.098030608	0.087402214	1.2664572	0.45031012	-0.053008305	0.90097745	0.43769316	0.18282199	1.2538897	0.43752793	0.071839017	0.88240211	0.43866543	0.051184284	1.0923203	0.79555564	-0.1015905	1.0073601	0.7832572	0.23522673	1.1522551	0.83886881	-0.045401174	1.1226179	0.83241314	0.20275626	0.93303993	0.91709891	0.075384695	1.050858	1.3170368	-0.11499723	1.069471	1.3117727	0.24638732	0.98524803	1.3519739	0.069309745	0.94173931	1.023288	-0.15825631	1.0808797	1.0008202	0.35683575	1.0154385	0.79864054	-0.22135682	1.3252915	0.95542928	0.31926796
389	1.552	1.5351203	0.14222532	-0.0413863	0.82239	0.034568807	0.12045032	1.4110963	0.10774326	-0.049041883	0.70366943	0.098969121	0.14827403	1.4110022	0.12454452	0.033471386	0.73156704	0.11774676	0.063249322	1.3680276	0.044322701	0.0014777001	0.64689821	0.10038974	0.088161672	1.2742424	0.4495783	-0.052123487	0.90610685	0.43705296	0.18307818	1.2614889	0.43716083	0.072629453	0.88764965	0.43805137	0.051442443	1.0999694	0.79435455	-0.10165153	1.0137031	0.78203161	0.23474108	1.1598012	0.83750564	-0.045325862	1.129667	0.83094837	0.20279056	0.94028134	0.91579315	0.074917114	1.0578407	1.3155001	-0.11544849	1.0760697	1.3103841	0.24609211	0.99203015	1.350595	0.068801663	0.94831142	1.0221656	-0.15820813	1.0883812	0.99945029	0.35661583	1.0196209	0.79705776	-0.2222523	1.332839	0.95505602	0.31850079
390	1.556	1.542825	0.14121695	-0.039282665	0.82260744	0.034590767	0.1205108	1.4189001	0.10666477	-0.047143715	0.70503536	0.10051663	0.14893225	1.4180663	0.12385232	0.035158272	0.73296806	0.11905172	0.063879151	1.3757368	0.043280709	0.0035290042	0.6482135	0.10286251	0.088975323	1.2821072	0.44879456	-0.051264255	0.91138144	0.43640078	0.18334475	1.269201	0.4368347	0.073398812	0.89302223	0.43743425	0.051753798	1.1076528	0.79321856	-0.10174612	1.020295	0.78088318	0.23445446	1.167328	0.83616921	-0.045222872	1.1367457	0.82949451	0.20289779	0.94762629	0.91452016	0.074537195	1.0648525	1.314	-0.11591608	1.0827073	1.3090234	0.24576435	0.99885284	1.3492183	0.068247405	0.95491387	1.0210525	-0.15820613	1.0958316	0.99810674	0.35636315	1.0239414	0.79553589	-0.22310655	1.3402925	0.95459668	0.31772448
391	1.56	1.5498995	0.13972235	-0.036560525	0.82283039	0.034599268	0.12058116	1.4261561	0.10539842	-0.045355895	0.70640396	0.10209853	0.14961151	1.4246446	0.122707	0.036910768	0.73447451	0.12042056	0.064557677	1.3826547	0.042046298	0.0051977323	0.64965349	0.10544544	0.089830852	1.2900535	0.44796992	-0.050423543	0.91681284	0.43573514	0.18363488	1.2770214	0.43653923	0.074136716	0.89853668	0.43680371	0.052113778	1.1153628	0.79214518	-0.10187998	1.027095	0.77978081	0.23431953	1.1748604	0.8348674	-0.045106464	1.1439049	0.82805174	0.20306822	0.95531325	0.91320657	0.074087602	1.0718932	1.3125397	-0.11639908	1.0893811	1.3076929	0.24540022	1.0057044	1.3478539	0.067671899	0.96154664	1.0199583	-0.15823735	1.1032238	0.99679012	0.35607577	1.0284055	0.79407321	-0.22392226	1.3476604	0.9540454	0.31695803
392	1.564	1.5564119	0.13775892	-0.033506954	0.82306159	0.034593233	0.12066529	1.432865	0.10388869	-0.043622014	0.70776138	0.10372137	0.15028875	1.4308712	0.1211415	0.038777986	0.73610024	0.12185082	0.065279068	1.388816	0.040605554	0.0066553863	0.65123072	0.108137	0.090716484	1.2980706	0.44713163	-0.049593809	0.92240911	0.4350556	0.18395709	1.2849299	0.43626398	0.074836039	0.90421569	0.43614892	0.052503867	1.1230993	0.79113057	-0.10205921	1.0339472	0.77868093	0.23419085	1.1824246	0.83360605	-0.044989216	1.1511536	0.82662727	0.20325806	0.96340683	0.91181208	0.073474418	1.0789626	1.311118	-0.11689968	1.0960897	1.3063936	0.24499836	1.0125712	1.346514	0.067098348	0.96821303	1.0188921	-0.15829131	1.1105438	0.99549695	0.35574738	1.0330148	0.79266962	-0.22470067	1.3549452	0.95340115	0.3162117
